<svg width="50" height="51" viewBox="0 0 50 51" fill="none" xmlns="http://www.w3.org/2000/svg">
<circle cx="25" cy="25.0205" r="25" fill="#EDFFFC"/>
<path d="M31.25 12.5205H18.75C15.2982 12.5205 12.5 15.3187 12.5 18.7705V31.2705C12.5 34.7223 15.2982 37.5205 18.75 37.5205H31.25C34.7018 37.5205 37.5 34.7223 37.5 31.2705V18.7705C37.5 15.3187 34.7018 12.5205 31.25 12.5205Z" stroke="#02897A" stroke-width="2" stroke-linecap="round" stroke-linejoin="round"/>
<path d="M29.9996 24.2329C30.1539 25.2732 29.9762 26.3357 29.4918 27.2692C29.0075 28.2027 28.2411 28.9597 27.3017 29.4325C26.3623 29.9053 25.2977 30.0699 24.2594 29.9028C23.221 29.7357 22.2618 29.2455 21.5182 28.5018C20.7745 27.7582 20.2843 26.799 20.1172 25.7607C19.9501 24.7223 20.1147 23.6578 20.5875 22.7184C21.0604 21.779 21.8174 21.0126 22.7509 20.5282C23.6844 20.0438 24.7468 19.8661 25.7871 20.0204C26.8483 20.1778 27.8307 20.6722 28.5893 21.4308C29.3478 22.1893 29.8423 23.1717 29.9996 24.2329Z" stroke="#02897A" stroke-width="2" stroke-linecap="round" stroke-linejoin="round"/>
<path d="M31.875 18.1455H31.8876" stroke="#02897A" stroke-width="2" stroke-linecap="round" stroke-linejoin="round"/>
</svg>
